<svg xmlns="http://www.w3.org/2000/svg" aria-label="ConfigOps" viewBox="245 180 1665 370"><defs><mask id="a" width="2172" height="724" x="0" y="0" maskUnits="userSpaceOnUse"><path fill="#fff" d="M0 0h2172v724H0z"/><path fill-rule="evenodd" d="M0 362v362.001l1086.25-.251 1086.25-.25.251-361.75.252-361.75H0zm.495.5c0 199.1.115 280.401.255 180.669s.14-262.632 0-362S.495 163.4.495 362.5m920.798-147.992c-9.443 2.052-18.299 6.722-23.703 12.499-8.722 9.324-11.546 19.634-11.573 42.243L886 284h-9.965c-9.198 0-10.054.167-11.125 2.167-1.411 2.637-.334 20.617 1.357 22.655.767.924 3.3 1.281 8.172 1.151 3.884-.103 8.074-.139 9.311-.08L886 310v67.8c0 51.4.29 68.09 1.2 69 .807.807 5.354 1.2 13.893 1.2 10.652 0 12.791-.254 13.3-1.582.334-.87.607-31.859.607-68.864v-67.282l4.64-.636c2.551-.35 14.693-.636 26.981-.636 26.126 0 23.641 1.555 23.171-14.5l-.292-10-27.25-.266-27.25-.266v-12.935c0-16.628 1.238-22.561 5.558-26.646 4.689-4.432 9.951-5.387 29.685-5.387 12.167 0 17.716-.359 18.557-1.2 1.925-1.925 1.616-21.242-.371-23.229-1.328-1.327-4.622-1.559-21.25-1.492-12.484.051-21.949.573-25.886 1.429m72.804 3.875c-1.499 1.806-1.39 29.522.123 31.367 1.532 1.868 26.121 1.749 27.684-.135.784-.944 1.061-6.269.873-16.75l-.277-15.365-13.605-.277c-10.862-.222-13.845.012-14.798 1.16M330 222.046c-22.359 5.906-36.838 18.935-43.755 39.376l-2.735 8.078-.298 61.482c-.26 53.359-.087 62.54 1.311 69.5 4.667 23.229 20.431 39.579 43.887 45.516 7.371 1.866 11.194 2.002 56.09 2.002 44.766 0 48.729-.14 55.932-1.983 11.416-2.919 20.111-7.581 27.077-14.517 10.909-10.862 15.261-22.559 16.2-43.543.737-16.466 1.22-15.957-15.158-15.957-8.65 0-12.6.371-13.296 1.25-.544.688-1.235 6.497-1.536 12.91-.776 16.57-4.584 24.161-15.219 30.331-7.426 4.308-12.268 4.673-57.5 4.331l-42.5-.322-5.5-2.59c-9.897-4.661-15.032-10.396-18.382-20.531-1.528-4.623-1.665-10.938-1.405-65l.287-59.879 2.784-5.284c5.437-10.319 15.412-17.253 27.302-18.978 3.253-.471 23.914-.606 45.914-.298l40 .56 6.262 2.892c12.079 5.578 17.134 14.012 17.971 29.981.291 5.57.976 10.69 1.521 11.377.696.879 4.647 1.25 13.297 1.25 16.22 0 15.94.266 15.019-14.293-1.637-25.878-11.392-42.339-30.863-52.083-14.096-7.054-13.836-7.026-67.207-7.307-45.118-.237-48.45-.133-55.5 1.729m1031 4.647c-32.978 5.543-58.116 28.767-64.42 59.515-2.166 10.568-2.165 28.353.002 29.185 3.16 1.213 26.124.669 27.16-.643.543-.687 1.281-5.614 1.639-10.948.801-11.915 3.388-20.601 8.45-28.374 4.54-6.972 9.791-11.388 18.362-15.442 12.649-5.982 17.299-6.486 59.807-6.485 34.3.001 39.209.201 45 1.834 9.531 2.688 17.213 7.159 23.344 13.587 10.667 11.183 13.612 20.927 13.639 45.128.012 10.74.388 15.921 1.217 16.75 1.263 1.263 25.164 1.765 28.218.593 1.354-.52 1.577-2.931 1.547-16.75-.02-9.132-.627-19.4-1.398-23.643-5.916-32.546-29.776-57.736-60.199-63.557-5.969-1.142-17.179-1.415-53.706-1.307-25.389.075-47.287.325-48.662.557m-814.809 59.332c-20.419 5.349-33.206 19.472-36.874 40.726-2.261 13.104-1.422 77.485 1.112 85.249 2.862 8.772 6.397 14.935 11.909 20.763 5.761 6.093 10.567 9.199 19.242 12.439 5.651 2.11 7.64 2.227 43.826 2.57 32.765.311 38.935.131 45.5-1.325 19.583-4.342 32.37-16.346 37.76-35.447 1.631-5.779 1.834-10.659 1.834-44 0-32.731-.225-38.327-1.767-44-4.027-14.818-12.36-26.286-23.449-32.272-2.824-1.524-8.615-3.662-12.869-4.75-7.019-1.795-11.029-1.973-43.325-1.923-31.739.049-36.381.262-42.899 1.97m150.925-.665c-.822.99-1.058 23.189-.872 81.75l.256 80.39 12.359.282c8.259.188 12.821-.102 13.75-.873 1.163-.965 1.391-12.368 1.391-69.572V308.92l36.25.49c41.841.567 43.938.924 51.449 8.755 7.008 7.305 6.769 4.972 7.09 69.279.202 40.518.622 58.346 1.396 59.279.84 1.012 4.15 1.267 13.711 1.056l12.604-.279V388c0-65.184.041-64.662-6.05-77.549-5.988-12.669-18.153-21.587-34.038-24.952-9.844-2.085-107.577-2.21-109.296-.139m297.41-.402c-.965 1.561-.685 161.283.284 162.252.469.469 6.666.726 13.771.571l12.919-.281v-163l-13.173-.278c-8.143-.173-13.413.109-13.801.736m95.833.945c-19.692 4.842-31.653 16.54-37.119 36.304-1.507 5.45-1.74 11.185-1.74 42.793 0 40.565.335 43.568 6.244 56 6.231 13.109 17.494 21.958 32.431 25.479 7.736 1.824 67.62 2.187 75.677.459 2.723-.584 7.059-2.398 9.634-4.032l4.684-2.97-.335 16.782c-.314 15.716-.498 17.099-2.906 21.782-1.829 3.557-3.971 5.866-7.42 8l-4.848 3-47.581.5-47.58.5-.281 12.223c-.276 12.043-.246 12.232 2.031 12.804 1.271.319 24.347.43 51.28.247 47.012-.319 49.194-.417 54.576-2.45 16.175-6.109 25.958-17.524 29.475-34.389 1.158-5.554 1.388-16.129 1.179-54.168l-.26-47.267-12.149-.28c-10.065-.232-12.423-.005-13.75 1.321-1.323 1.323-1.601 4.155-1.603 16.28-.001 17.133-1.001 20.299-7.536 23.882-6.652 3.646-16.341 4.531-44.34 4.053-27.685-.473-31.816-1.133-38.359-6.123-4.451-3.395-8.309-10.598-9.676-18.067-1.42-7.754-1.417-57.413.004-65.101 1.345-7.274 3.719-12.011 8.071-16.103 8.039-7.558 12.676-8.2 57.838-8.006l33.5.144.271 20.944c.229 17.722.522 21.223 1.905 22.75 1.512 1.672 4.085 1.806 34.545 1.806 20.087 0 33.641-.391 34.784-1.003 1.252-.67 2.079-.67 2.493 0 .949 1.535 56.758 1.347 58.302-.197 1.756-1.756 1.636-21.193-.139-22.667-.945-.783-16.194-1.106-51.674-1.094-39.781.013-50.504-.251-51.145-1.261-.446-.703-.818-10.526-.827-21.828-.011-14.632-.361-20.896-1.215-21.75-.906-.906-14.461-1.182-55.25-1.126-48.004.065-54.849.27-61.191 1.829m461.324.347c-1.584 1.165-1.681 8.961-1.441 115.25l.258 114 12.359.282c8.259.188 12.821-.102 13.75-.873 1.141-.946 1.391-7.625 1.391-37.104v-35.95l2.638 2.075c5.805 4.566 10.475 5.071 46.794 5.055 37.113-.016 41.634-.512 52.332-5.741 12.599-6.159 21.486-18.283 24.732-33.744 2.09-9.956 2.114-73.957.031-83.787-4.204-19.842-17.646-33.5-38.123-38.738-7.212-1.844-11.215-1.975-60.373-1.975-40.546 0-53.039.287-54.348 1.25m214.911.394c-20.487 4.392-31.193 16.293-33.733 37.499-1.415 11.808-.107 23.996 3.429 31.952 2.611 5.876 9.132 12.551 15.361 15.724 9.805 4.994 13.109 5.424 47.849 6.22 20.231.463 34.488 1.211 36.844 1.931 2.115.647 5.49 2.683 7.5 4.524l3.656 3.347.332 12.006c.369 13.332-.789 17.6-5.705 21.02-5.781 4.021-8.989 4.493-32.127 4.724-25.028.25-36.596-.686-41.928-3.393-5.053-2.566-8.072-8.844-8.072-16.787 0-4.048-.478-6.563-1.392-7.321-.925-.768-5.357-1.061-13.228-.873l-11.835.283-.972 2.769c-1.501 4.275.78 19.538 3.987 26.684 4.625 10.307 14.043 17.562 26.659 20.536 9.083 2.142 72.479 2.142 81.562 0 15.636-3.686 25.781-12.771 29.58-26.489 3.566-12.88 2.851-34.123-1.482-44-2.322-5.291-8.71-12.172-14.465-15.579-8.923-5.282-17.211-6.42-46.824-6.429-36.328-.01-43.15-1.247-48.201-8.743-4.068-6.036-3.822-23.437.413-29.244 1.005-1.378 3.598-3.405 5.763-4.505 3.593-1.826 6.3-2.029 31.143-2.333 22.596-.277 28.133-.064 32.664 1.253 6.229 1.811 10.284 5.809 11.013 10.859.256 1.772.836 5.471 1.29 8.221l.825 5 11.724.894c15.438 1.178 15.163 1.406 14.564-12.057-.399-8.96-.849-11.018-3.658-16.724-5.701-11.58-15.83-18.33-31.646-21.088-12.085-2.107-60.888-2.026-70.89.119M560 309.999c-10.267 1.744-17.323 6.835-21.124 15.244-2.358 5.217-2.376 5.525-2.376 40.757 0 27.657.305 36.365 1.382 39.416 1.942 5.5 8.235 11.937 14.391 14.721 5.122 2.315 5.831 2.363 35.227 2.363 35.73 0 38.62-.525 46.548-8.452 7.847-7.848 8.102-9.528 7.75-51.219-.287-33.994-.38-35.48-2.456-39.329-4.114-7.623-9.972-11.591-19.796-13.407-6.629-1.225-52.456-1.298-59.546-.094m1018 51.497c0 57.346-.227 55.335 6.726 59.657 3.767 2.342 3.839 2.347 37.774 2.347 33.705 0 34.046-.021 39.288-2.389 6.692-3.025 12.723-9.763 14.772-16.507 2.214-7.287 2.12-66.953-.118-74.486-2.169-7.305-6.999-13.071-13.911-16.608l-5.884-3.01-39.323-.303-39.324-.304zm-83.333-9.829c-.367.366-.667 7.28-.667 15.363 0 17.834-.93 23.294-5.585 32.784-5.902 12.032-15.316 19.793-30.255 24.942-7.208 2.485-80.976 3.068-92.546.732-16.756-3.383-29.087-12.311-35.466-25.677-2.597-5.443-3.4-8.796-4.31-18-.616-6.221-1.561-11.873-2.101-12.561-1.031-1.312-23.994-1.856-27.155-.643-1.293.496-1.582 2.39-1.582 10.372 0 35.525 22.378 64.24 57 73.141 7.894 2.03 11.424 2.217 49.5 2.624 43.292.462 56.827-.263 68.801-3.687 26.069-7.455 43.867-25.152 51.852-51.557 1.736-5.741 2.201-10.466 2.588-26.269.352-14.359.159-19.647-.757-20.75-.976-1.176-4.052-1.481-14.94-1.481-7.541 0-14.011.3-14.377.667"/></mask></defs><g fill-rule="evenodd" mask="url(#a)"><path fill="#0d57f6" d="M949.789 213.741c3.459.196 8.859.195 12-.003s.311-.358-6.289-.356-9.17.164-5.711.359m72.208 19.556.497 16.203.28-15.423c.154-8.483-.07-15.774-.497-16.203s-.553 6.512-.28 15.423m-28.6-.297c0 7.975.156 11.238.346 7.25s.189-10.512 0-14.5c-.19-3.988-.346-.725-.346 7.25m-52.608 5.741c3.459.196 8.859.195 12-.003s.311-.358-6.289-.356-9.17.164-5.711.359m-567.539 9.007c9.212.165 24.288.165 33.5 0s1.675-.3-16.75-.3-25.962.135-16.75.3M886.405 268.5c.001 8.8.154 12.266.34 7.703.185-4.564.184-11.764-.003-16s-.338-.503-.337 8.297m-573.938 66c0 30.8.127 43.544.282 28.321s.156-40.423 0-56c-.155-15.577-.282-3.121-.282 27.679m1474.783-48.752c8.112.168 21.388.168 29.5 0s1.475-.306-14.75-.306-22.862.138-14.75.306m-1324.958 7.994c3.735.193 9.585.192 13-.003 3.414-.194.358-.352-6.792-.35-7.15.001-9.944.161-6.208.353M723.473 377.5c0 37.95.125 53.33.277 34.177s.152-50.203-.001-69c-.152-18.797-.276-3.127-.276 34.823m160.27-67.845 2.243.482.267 67.682.268 67.681-.011-68-.01-68-2.5-.164c-2.19-.143-2.221-.104-.257.319m296.255 21.143.498 21.702.273-20.929c.15-11.511-.074-21.277-.498-21.702s-.547 8.993-.273 20.929m397.466 29.702c0 28.05.128 39.669.285 25.82s.157-36.799 0-51c-.156-14.201-.284-2.87-.285 25.18m-274.214-44.758c3.713.192 9.787.192 13.5 0 3.713-.193.675-.35-6.75-.35s-10.463.157-6.75.35m-49.933 15.041c-.762.484-1.297 4.723-1.5 11.892-.175 6.127-.011 10.949.364 10.716.374-.233.963.034 1.309.593.957 1.547 56.754 1.372 58.31-.184.775-.775 1.2-4.778 1.2-11.3s-.425-10.525-1.2-11.3c-1.358-1.358-56.386-1.75-58.483-.417M642.445 365c0 17.325.137 24.413.303 15.75.167-8.663.167-22.837 0-31.5-.166-8.663-.303-1.575-.303 15.75m409.001.5c.001 17.6.137 24.659.303 15.687s.165-23.372-.001-32c-.167-8.628-.302-1.287-.302 16.313m-381.001 2c-.001 17.05.136 24.166.303 15.812.167-8.353.167-22.303 0-31-.166-8.696-.303-1.862-.303 15.188m1007.993-4c-.001 14.85.138 21.064.309 13.81.171-7.255.171-19.405.001-27-.17-7.596-.31-1.66-.31 13.19m-858.972 30c0 29.15.127 40.931.283 26.18.156-14.752.156-38.602 0-53s-.284-2.33-.283 26.82m483.784-24.758c3.713.192 9.787.192 13.5 0 3.713-.193.675-.35-6.75-.35s-10.463.157-6.75.35m-840.958 4c3.735.193 9.585.192 13-.003 3.414-.194.358-.352-6.792-.35-7.15.001-9.944.161-6.208.353m718.103 20.758c.001 7.7.158 10.718.348 6.706.191-4.011.189-10.311-.002-14-.192-3.688-.348-.406-.346 7.294M364.25 421.749c10.862.161 28.637.161 39.5 0 10.863-.162 1.975-.294-19.75-.294s-30.613.132-19.75.294m1244.061 2.999c8.146.168 21.196.168 29-.001 7.804-.168 1.139-.306-14.811-.306-15.95.001-22.335.139-14.189.307m-215.061 3c9.213.165 24.287.165 33.5 0s1.675-.3-16.75-.3-25.963.135-16.75.3M1577.452 478c0 20.075.133 28.288.297 18.25s.163-26.462 0-36.5c-.164-10.037-.297-1.825-.297 18.25m-189.135-23.251c11.449.161 29.899.16 41 0 11.101-.161 1.733-.293-20.817-.292-22.55 0-31.632.132-20.183.292"/><path fill="#131f31" d="M925.757 214.017c-13.925 2.393-26.025 9.143-31.671 17.667-5.73 8.651-7.086 15.332-7.086 34.921V284l-9.75.015c-5.362.009-10.328.382-11.034.831-.952.604-1.211 3.771-1 12.234l.284 11.42 10.5.5 10.5.5.5 69 .5 69 12.359.282c8.259.188 12.821-.102 13.75-.873 1.163-.965 1.391-12.36 1.391-69.515v-68.361l26.75-.267 26.75-.266.5-11.304c.289-6.537.099-11.704-.45-12.25S956.488 284 941.3 284H915l.006-14.25c.006-16.099.861-20.39 5.001-25.105 4.515-5.142 9.091-6.13 28.993-6.256 9.625-.062 18.063-.174 18.75-.25.92-.102 1.25-3.186 1.25-11.67 0-8.352-.345-11.639-1.25-11.919-2.753-.853-37.561-1.295-41.993-.533m68.937 3.622c-.382.382-.694 7.771-.694 16.421 0 13.863.201 15.803 1.696 16.377 2.243.86 23.719.543 25.201-.373.815-.504 1.074-5.404.879-16.639l-.276-15.925-13.056-.278c-7.18-.152-13.368.035-13.75.417m-660.581 3.874c-15.984 3.547-24.532 7.869-33.702 17.039-4.102 4.102-7.365 8.628-9.77 13.553-7.173 14.689-7.001 12.876-7.399 78.117-.384 62.964-.069 68.372 4.719 81.014 6.395 16.885 20.751 29.254 40.039 34.497 5.808 1.579 11.819 1.767 56.5 1.767 44.696 0 50.678-.187 56.387-1.765 16.294-4.501 29.247-14.283 35.522-26.825 5.005-10.005 6.727-19.022 6.38-33.41l-.289-12h-28l-.508 12.5c-.451 11.131-.819 13.136-3.351 18.307-3.492 7.13-10.471 12.962-18.477 15.44-5.026 1.556-10.505 1.753-48.664 1.753-42.663 0-43.045-.018-48.747-2.321-8.022-3.239-15.74-10.574-19.348-18.388L312.5 394.5v-59c0-44.678.307-60.009 1.264-63.157 2.964-9.753 12.347-19.281 22.602-22.952 4.58-1.64 9.339-1.874 44.134-2.172 25.585-.218 41.198.049 45.389.777 7.813 1.358 14.353 4.572 19.497 9.581 6.107 5.946 7.978 11.158 8.588 23.923l.526 11h28l.291-8.873c1.012-30.907-14.639-52.829-43.437-60.841-7.474-2.079-10.057-2.197-53.354-2.438-36.327-.202-46.788.033-51.887 1.165m1030.387 5.194c-28.002 3.8-50.573 19.148-61.463 41.793-5.365 11.155-7.202 19.603-7.384 33.951l-.153 12.049h29l.599-10.537c.329-5.795 1.396-12.995 2.371-16 5.351-16.498 16.888-27.199 35.093-32.547 8.667-2.546 80.196-3.333 91.343-1.005 10.987 2.294 19.335 6.598 25.941 13.372C1491.37 279.6 1494 287.942 1494 312.675c0 16.036.137 17.328 1.934 18.29 1.064.569 7.534 1.035 14.378 1.035 9.961 0 12.697-.306 13.716-1.533 1.681-2.026.641-33.193-1.422-42.605-3.288-15.001-12.942-32.483-22.865-41.405-7.491-6.735-12.918-10.253-21.666-14.044-13.44-5.824-20.031-6.432-67.956-6.263-23.44.082-43.969.333-45.619.557m-811 57.944c-17.744 2.63-32.207 12.577-38.97 26.802-5.696 11.98-6.031 15.133-6.016 56.547l.015 37.5 2.803 8c5.968 17.03 15.623 26.572 32.168 31.792 6.708 2.116 8.584 2.208 45 2.208 41.503 0 44.052-.281 56.114-6.187 7.155-3.504 15.441-11.515 18.833-18.209 5.919-11.68 6.553-17.017 6.553-55.176 0-39.418-.727-45.862-6.496-57.586-5.684-11.55-16.186-19.791-30.635-24.038-4.361-1.282-12.037-1.627-40.869-1.838-19.525-.143-36.85-.06-38.5.185m144.25.382c-1.643 1.001-1.75 5.941-1.75 80.894 0 66.981.224 80.014 1.392 80.983.926.769 5.362 1.061 13.25.873l11.858-.283.257-69.305.257-69.305 37.743.305 37.743.305 5.73 2.814c3.151 1.547 7.101 4.472 8.778 6.5 6.279 7.59 6.307 7.883 6.928 71.186l.564 57.5 11.858.283c8.352.199 12.302-.085 13.357-.962 1.311-1.088 1.437-8.52 1.002-59.282-.466-54.395-.626-58.52-2.542-65.693-5.11-19.135-15.617-29.846-34.738-35.415-5.207-1.517-12.327-1.774-57.937-2.097-35.684-.252-52.549-.033-53.75.699m297.366.327c-.822.99-1.058 23.189-.872 81.75l.256 80.39 11.5.29c6.325.16 12.513.039 13.75-.269l2.25-.559v-80.281c0-61.107-.287-80.568-1.2-81.481-1.787-1.787-24.183-1.648-25.684.16m99.384.137c-13.42 2.525-21.823 6.865-29.795 15.387-4.899 5.237-6.828 8.517-10.019 17.029-1.958 5.223-2.119 7.997-2.473 42.587-.437 42.859.069 48.088 5.822 60.103 6.055 12.645 15.995 20.914 30.221 25.139 6.88 2.043 64.434 3.04 74.484 1.29 6.859-1.195 12.99-3.797 15.19-6.448.713-.859 1.594-1.378 1.957-1.154.362.224.62 7.532.571 16.239-.08 14.245-.32 16.358-2.399 21.088-2.708 6.16-7.483 10.712-12.782 12.183-2.377.66-20.476 1.051-48.827 1.054-33.699.005-45.352.308-46.25 1.206-1.828 1.828-1.635 22.194.226 23.738 1.067.886 13.695 1.097 50.25.839 47.109-.333 49.054-.422 55.366-2.537 16.51-5.531 26.386-16.867 30.014-34.445 1.724-8.356 1.919-13.87 1.931-54.566l.013-45.272-2.476-1.128c-1.754-.799-5.616-.866-13.25-.229l-10.774.9-.567 15.5c-.311 8.525-1.06 16.665-1.663 18.089-.604 1.423-2.475 3.747-4.159 5.164-5.898 4.963-8.206 5.247-42.611 5.247-31.522 0-32.078-.035-37.242-2.37-6.36-2.875-11.332-8.155-13.867-14.726-1.722-4.465-1.891-7.95-1.891-38.904 0-24.723.348-35.148 1.277-38.208 1.987-6.546 7.053-12.384 13.693-15.782l5.884-3.01h80.146l.261 21.5c.227 18.783.472 21.658 1.941 22.75 2.165 1.611 64.385 1.809 67.364.215 1.732-.927 1.934-2.183 1.934-12 0-6.031-.112-11.055-.25-11.165s-9.925-.447-21.75-.75l-21.5-.55-.261-21.5c-.227-18.783-.472-21.658-1.941-22.75-2.463-1.832-101.913-1.612-111.798.247m457.75 1.023-2.25 1.593v112.821c0 95.169.218 113.002 1.392 113.976.926.769 5.362 1.061 13.25.873l11.858-.283.262-36.75c.145-20.212.541-36.75.882-36.75s2.049.883 3.795 1.963c7.071 4.37 13.141 5.037 45.813 5.037 33.735 0 41.282-.842 51.748-5.772 7.353-3.464 16.514-12.338 20.136-19.503 6.078-12.027 6.364-14.532 6.364-55.725 0-40.866-.244-43.189-5.783-55-3.793-8.089-13.006-17.464-20.888-21.256-12.834-6.174-12.423-6.136-70.829-6.491-47.674-.29-53.745-.152-55.75 1.267m211.862 1.061c-13.993 3.763-24.266 12.549-28.29 24.197-2.014 5.829-2.322 8.648-2.322 21.222 0 11.404.386 15.605 1.806 19.678 3.824 10.959 11.758 17.995 25.23 22.372 6.479 2.105 9.297 2.304 40.464 2.856 33.173.588 33.549.618 38.483 3.094 6.648 3.335 8.74 7.14 9.306 16.922.591 10.203-1.097 18.058-4.579 21.315-6.493 6.073-7.39 6.235-36.452 6.586-28.59.344-35.244-.328-40.892-4.134-4.859-3.275-7.072-7.841-7.639-15.758-.288-4.033-1.057-7.375-1.846-8.03-.962-.798-4.604-.873-12.617-.261l-11.264.86-.293 7.807c-.839 22.346 10.286 36.615 32.051 41.111 11.059 2.285 66.417 2.283 77.534-.002 14.684-3.018 25.645-11.392 30.388-23.214 2.069-5.16 2.287-7.319 2.287-22.702 0-15.339-.222-17.552-2.267-22.647-2.89-7.2-8.568-13.647-15.195-17.254-9.814-5.341-12.975-5.763-47.005-6.265-35.216-.52-40.138-1.232-45.76-6.621-1.793-1.718-3.703-4.719-4.244-6.669-1.308-4.708-1.251-14.585.113-19.497 1.403-5.055 6.383-10.035 11.438-11.438 5.446-1.512 57.016-1.489 61.554.027 4.071 1.361 8.709 5.418 10.134 8.864.568 1.375 1.31 5.425 1.649 9l.616 6.5h26l.322-3.944c.543-6.657-1.631-19.246-4.195-24.294-4.998-9.837-13.348-15.994-26.123-19.261-7.071-1.808-10.959-1.995-40.414-1.935-25.145.051-33.821.397-37.978 1.515M557.5 309.976c-9.204 2.366-16.411 8.496-19.409 16.509-1.821 4.868-1.993 8.051-2.123 39.157-.156 37.472.234 40.544 6.024 47.544 1.677 2.028 5.627 4.953 8.778 6.5l5.73 2.814 29.259.306c23.755.248 30.382.017 35.234-1.226 7.292-1.868 13.029-5.527 16.318-10.409 4.986-7.398 5.189-9.225 5.189-46.671v-35l-2.799-5.699c-1.804-3.674-4.289-6.796-6.992-8.784-7.556-5.556-10.996-6.028-43.141-5.915-15.987.057-30.418.45-32.068.874m1019.506 49.774c.003 30.691.395 51.155 1.024 53.418 1.446 5.205 6.666 9.419 13.399 10.817 7.429 1.542 61.558.865 66.748-.835 7.646-2.504 13.081-7.206 16.815-14.548l3.508-6.897v-33.603c0-39.491-.272-41.004-8.911-49.644-8.419-8.419-8.67-8.458-53.767-8.458H1577zm-81.806-7.55c-.833.833-1.204 6.114-1.212 17.25-.007 10.205-.499 17.871-1.349 21.05-4.611 17.236-17.978 30.048-36.763 35.239-5.592 1.545-11.23 1.761-45.876 1.757-34.307-.004-40.396-.234-46.312-1.75-9.658-2.475-17.405-6.402-23.055-11.684-10.376-9.703-14.417-18.721-15.466-34.524l-.667-10.038h-29l.07 10c.092 13.142 2.528 23.494 8.192 34.812 8.111 16.205 23.921 29.625 41.452 35.186 12.984 4.118 18.318 4.487 64.786 4.481 48.58-.006 54.748-.566 68.836-6.257 24.744-9.994 41.27-31.677 45.093-59.166 1.495-10.749 1.41-34.817-.129-36.356-1.666-1.666-26.934-1.666-28.6 0"/></g></svg>